<svg width="448" height="448" xmlns="http://www.w3.org/2000/svg" class="svg-inline--fa fa-envelope-square fa-w-14">
<path id="svg_1" d="m400,0l-352,0c-26.51,0 -48,21.490002 -48,48l0,352c0,26.51001 21.49,48 48,48l352,0c26.51001,0 48,-21.48999 48,-48l0,-352c0,-26.509998 -21.48999,-48 -48,-48zm-221.882996,230.104004c-90.688004,-65.817001 -89.764008,-65.983002 -114.117004,-84.936996l0,-25.167007c0,-13.255005 10.745003,-24 24,-24l272,0c13.255005,0 24,10.744995 24,24l0,25.167007c-24.371002,18.968994 -23.43399,19.123993 -114.117004,84.938004c-10.5,7.654999 -31.391998,26.119995 -45.882996,25.893982c-14.503006,0.218018 -35.367004,-18.22699 -45.882996,-25.894989zm205.882996,-44.32901l0,142.225006c0,13.255005 -10.744995,24 -24,24l-272,0c-13.254997,0 -24,-10.744995 -24,-24l0,-142.225006c13.958,10.793991 33.329002,25.235992 95.302994,70.213989c14.162003,10.341003 37.975006,32.14502 64.694,32.01001c26.887009,0.134003 51.037003,-22.041016 64.720016,-32.024994c61.957977,-44.965012 81.324982,-59.406006 95.28299,-70.199005z" fill="currentColor"/>
</svg>