<svg width="448" height="448" xmlns="http://www.w3.org/2000/svg" class="svg-inline--fa fa-github-square fa-w-14">
<path id="svg_1" d="m400,0l-352,0c-26.5,0 -48,21.5 -48,48l0,352c0,26.5 21.5,48 48,48l352,0c26.5,0 48,-21.5 48,-48l0,-352c0,-26.5 -21.5,-48 -48,-48zm-122.700012,383.700012c-8.399994,1.5 -11.5,-3.700012 -11.5,-8c0,-5.399994 0.200012,-33 0.200012,-55.299988c0,-15.600006 -5.200012,-25.5 -11.300018,-30.700012c37,-4.100006 76,-9.200012 76,-73.099991c0,-18.200012 -6.5,-27.300003 -17.100006,-39c1.700012,-4.300003 7.400024,-22 -1.699982,-45c-13.899994,-4.300003 -45.700012,17.899994 -45.700012,17.899994c-13.199997,-3.699997 -27.5,-5.600006 -41.599991,-5.600006c-14.100006,0 -28.400009,1.900009 -41.600006,5.600006c0,0 -31.799988,-22.199997 -45.699997,-17.899994c-9.100006,22.899994 -3.5,40.599991 -1.699997,45c-10.600006,11.699997 -15.600006,20.799988 -15.600006,39c0,63.599991 37.300003,68.999985 74.300003,73.099991c-4.800003,4.299988 -9.099991,11.700012 -10.599991,22.299988c-9.5,4.300018 -33.800003,11.700012 -48.300003,-13.899994c-9.100006,-15.799988 -25.5,-17.100006 -25.5,-17.100006c-16.200005,-0.199982 -1.099998,10.200012 -1.099998,10.200012c10.799995,5 18.399994,24.200012 18.399994,24.200012c9.700005,29.699982 56.099998,19.699982 56.099998,19.699982c0,13.899994 0.199997,36.5 0.199997,40.600006c0,4.299988 -3,9.5 -11.5,8c-65.999992,-22.100006 -112.199993,-84.899994 -112.199993,-158.300018c0,-91.799988 70.199993,-161.499985 161.999996,-161.499985s166.200012,69.699997 166.200012,161.499985c0.100006,73.399994 -44.700012,136.300018 -110.700012,158.300018zm-98.099976,-61.100006c-1.900009,0.399994 -3.700012,-0.399994 -3.900009,-1.700012c-0.199997,-1.5 1.100006,-2.799988 3,-3.199982c1.899994,-0.200012 3.699997,0.599976 3.900009,1.899994c0.299988,1.299988 -1,2.600006 -3,3zm-9.5,-0.899994c0,1.299988 -1.5,2.399994 -3.5,2.399994c-2.200012,0.199982 -3.700012,-0.899994 -3.700012,-2.399994c0,-1.300018 1.5,-2.400024 3.5,-2.400024c1.900009,-0.199982 3.700012,0.900024 3.700012,2.400024zm-13.700012,-1.100006c-0.399994,1.299988 -2.399994,1.899994 -4.099991,1.299988c-1.900009,-0.399994 -3.199997,-1.899994 -2.800003,-3.199982c0.399994,-1.300018 2.399994,-1.900024 4.100006,-1.5c2,0.599976 3.299988,2.099976 2.799988,3.399994zm-12.299988,-5.399994c-0.900009,1.099976 -2.800003,0.899994 -4.300003,-0.600006c-1.5,-1.300018 -1.900009,-3.200012 -0.900009,-4.100006c0.900009,-1.100006 2.800003,-0.899994 4.300003,0.600006c1.300003,1.299988 1.800003,3.299988 0.900009,4.100006zm-9.100006,-9.100006c-0.900009,0.600006 -2.600006,0 -3.699997,-1.5s-1.100006,-3.200012 0,-3.899994c1.099991,-0.900024 2.799988,-0.200012 3.699997,1.299988c1.099991,1.5 1.099991,3.299988 0,4.100006zm-6.5,-9.700012c-0.900002,0.899994 -2.400002,0.399994 -3.5,-0.600006c-1.099998,-1.299988 -1.300003,-2.799988 -0.400002,-3.5c0.900002,-0.899994 2.400002,-0.399994 3.5,0.600006c1.099998,1.300018 1.299995,2.800018 0.400002,3.5zm-6.700005,-7.399994c-0.399994,0.899994 -1.699997,1.100006 -2.799995,0.399994c-1.300003,-0.600006 -1.900002,-1.699982 -1.5,-2.600006c0.400002,-0.599976 1.5,-0.899994 2.799995,-0.399994c1.300003,0.700012 1.900002,1.800018 1.5,2.600006z" fill="currentColor"/>
</svg>