<svg aria-hidden="true" focusable="false" data-prefix="fab" data-icon="instagram-square" role="img" xmlns="http://www.w3.org/2000/svg" width="448" height="448" style=""><rect id="backgroundrect" width="100%" height="100%" x="0" y="0" fill="none" stroke="none" style="--darkreader-inline-fill:none; --darkreader-inline-stroke:none;" data-darkreader-inline-fill="" data-darkreader-inline-stroke=""/><g class="currentLayer" style=""><title>Layer 1</title><path fill="currentColor" d="M224,170.66000366210938 A53.34000015258789,53.34000015258789 0 1 0 277.3599853515625,224 A53.380001068115234,53.380001068115234 0 0 0 224,170.66000366210938 zm124.70999908447266,-41 a54,54 0 0 0 -30.40999984741211,-30.40999984741211 c-21,-8.289999961853027 -71,-6.429999828338623 -94.30000305175781,-6.429999828338623 s-73.25,-1.9299999475479126 -94.30999755859375,6.429999828338623 a54,54 0 0 0 -30.40999984741211,30.40999984741211 c-8.279999732971191,21 -6.429999828338623,71.05000305175781 -6.429999828338623,94.33000183105469 S91,297.260009765625 99.31999969482422,318.3299865722656 a54,54 0 0 0 30.40999984741211,30.40999984741211 c21,8.289999961853027 71,6.429999828338623 94.30999755859375,6.429999828338623 s73.23999786376953,1.9299999475479126 94.30000305175781,-6.429999828338623 a54,54 0 0 0 30.40999984741211,-30.40999984741211 c8.350000381469727,-21 6.429999828338623,-71.05000305175781 6.429999828338623,-94.33000183105469 S357.1000061035156,150.74000549316406 348.75,129.6699981689453 zM224,306 a82,82 0 1 1 82,-82 A81.9000015258789,81.9000015258789 0 0 1 224,306 zm85.37999725341797,-148.3000030517578 a19.139999389648438,19.139999389648438 0 1 1 19.1299991607666,-19.139999389648438 A19.100000381469727,19.100000381469727 0 0 1 309.4200134277344,157.74000549316406 zM400,0 H48 A48,48 0 0 0 0,48 V400 a48,48 0 0 0 48,48 H400 a48,48 0 0 0 48,-48 V48 A48,48 0 0 0 400,0 zM382.8800048828125,290 c-1.2899999618530273,25.6299991607666 -7.139999866485596,48.34000015258789 -25.850000381469727,67 s-41.400001525878906,24.6299991607666 -67,25.850000381469727 c-26.40999984741211,1.4900000095367432 -105.58999633789062,1.4900000095367432 -132,0 c-25.6299991607666,-1.2899999618530273 -48.2599983215332,-7.150000095367432 -67,-25.850000381469727 s-24.6299991607666,-41.41999816894531 -25.850000381469727,-67 c-1.4900000095367432,-26.420000076293945 -1.4900000095367432,-105.61000061035156 0,-132 c1.2899999618530273,-25.6299991607666 7.070000171661377,-48.34000015258789 25.850000381469727,-67 s41.470001220703125,-24.559999465942383 67,-25.780000686645508 c26.40999984741211,-1.4900000095367432 105.58999633789062,-1.4900000095367432 132,0 c25.6299991607666,1.2899999618530273 48.33000183105469,7.150000095367432 67,25.850000381469727 s24.6299991607666,41.41999816894531 25.850000381469727,67.05000305175781 C384.3699951171875,184.44000244140625 384.3699951171875,263.55999755859375 382.8800048828125,290 z" id="svg_1" style="--darkreader-inline-fill:currentColor;" data-darkreader-inline-fill="" class=""/></g></svg>