<svg aria-hidden="true" focusable="false" data-prefix="fab" data-icon="linkedin" role="img" xmlns="http://www.w3.org/2000/svg" width="448" height="448" style=""><rect id="backgroundrect" width="100%" height="100%" x="0" y="0" fill="none" stroke="none" style="--darkreader-inline-fill:none; --darkreader-inline-stroke:none;" data-darkreader-inline-fill="" data-darkreader-inline-stroke=""/>
<path fill="currentColor" d="M416,-0.33084678649902344 H31.899999618530273 C14.300000190734863,-0.33084678649902344 0,14.169135093688965 0,31.969136238098145 v383.3999938964844 C0,433.16865253448486 14.300000190734863,447.66865253448486 31.899999618530273,447.66865253448486 H416 c17.600000381469727,0 32,-14.5 32,-32.29999923706055 V31.969136238098145 c0,-17.799999237060547 -14.399999618530273,-32.29999923706055 -32,-32.29999923706055 zM135.39999389648438,383.66865253448486 H69 V169.86929035186768 h66.5 V383.66865253448486 zm-33.20000076293945,-243 c-21.299999237060547,0 -38.5,-17.299999237060547 -38.5,-38.5 S80.9000015258789,63.66929340362549 102.19999694824219,63.66929340362549 c21.200000762939453,0 38.5,17.299999237060547 38.5,38.5 c0,21.299999237060547 -17.200000762939453,38.5 -38.5,38.5 zm282.1000061035156,243 h-66.4000015258789 V279.66865253448486 c0,-24.799999237060547 -0.5,-56.70000076293945 -34.5,-56.70000076293945 c-34.599998474121094,0 -39.900001525878906,27 -39.900001525878906,54.900001525878906 V383.66865253448486 h-66.4000015258789 V169.86929035186768 h63.70000076293945 v29.200000762939453 h0.8999999761581421 c8.899999618530273,-16.799999237060547 30.600000381469727,-34.5 62.900001525878906,-34.5 c67.19999694824219,0 79.69999694824219,44.29999923706055 79.69999694824219,101.9000015258789 V383.66865253448486 z" id="svg_1" style="--darkreader-inline-fill:currentColor;" data-darkreader-inline-fill="" class=""/></svg>